<?xml version="1.0" encoding="UTF-8"?>
<svg xmlns="http://www.w3.org/2000/svg" width="823" height="185" viewBox="0 0 823 185" fill="none">
  <g clip-path="url(#clip0_152_3466)">
    <path d="M461.86 122.361C459.26 123.741 456.89 125.341 454.74 127.141C452.59 128.941 450.71 130.781 449.09 132.651C447.13 134.881 445.56 137.181 444.4 139.551C443.23 141.931 442.54 143.971 442.32 145.701C442.1 147.421 442.46 148.601 443.4 149.231C444.34 149.861 446.02 149.551 448.45 148.281C450.53 147.141 452.41 145.961 454.09 144.741C455.77 143.521 457.38 142.181 458.92 140.711C460.55 139.241 462.05 137.701 463.41 136.091C464.77 134.481 465.96 132.841 466.97 131.151C467.39 130.341 467.8 129.481 468.22 128.591C468.64 127.691 468.92 126.731 469.07 125.691C467.75 125.441 466.49 125.061 465.29 124.541C464.09 124.031 462.95 123.301 461.87 122.351L461.86 122.361ZM464.12 129.591C463.22 131.091 462.14 132.581 460.92 134.021C459.65 135.521 458.24 136.971 456.72 138.341L456.66 138.401C455.23 139.771 453.71 141.031 452.16 142.151C450.59 143.291 448.81 144.411 446.92 145.441C446.27 145.781 445.78 145.991 445.41 146.121C445.41 146.101 445.41 146.091 445.41 146.071C445.58 144.701 446.18 142.971 447.19 140.921C448.23 138.811 449.65 136.721 451.44 134.701C452.94 132.971 454.72 131.231 456.73 129.551C458.21 128.311 459.82 127.171 461.55 126.131C462.33 126.651 463.14 127.091 463.97 127.441C464.3 127.581 464.64 127.721 464.98 127.841C464.69 128.451 464.41 129.031 464.12 129.581V129.591Z" fill="white"></path>
    <path d="M285.81 124.43C284.93 124.26 284.07 124.02 283.23 123.73C282.36 123.42 281.51 123.01 280.68 122.48C280 122.05 279.12 122.03 278.44 122.48C276.34 123.87 274.42 125.4 272.67 127.07C270.6 129.05 268.8 131.04 267.28 133.06C265.43 135.46 263.99 137.91 262.96 140.4C261.93 142.9 261.36 145.03 261.25 146.8C261.14 148.57 261.59 149.75 262.58 150.33C263.58 150.91 265.27 150.48 267.66 149.03C269.7 147.73 271.54 146.4 273.17 145.05C274.8 143.7 276.35 142.22 277.83 140.62C279.39 139.01 280.81 137.34 282.1 135.61C283.38 133.88 284.48 132.12 285.4 130.34C285.77 129.49 286.14 128.59 286.5 127.64C286.69 127.14 286.84 126.63 286.96 126.1C287.13 125.33 286.59 124.57 285.82 124.42L285.81 124.43ZM282.89 128.14C282.77 128.42 282.58 128.69 282.46 128.96C281.64 130.54 280.64 132.14 279.49 133.69C278.3 135.3 276.95 136.88 275.5 138.37L275.44 138.43C274.07 139.92 272.61 141.31 271.1 142.56C269.58 143.82 267.83 145.08 265.98 146.26C265.34 146.65 264.85 146.89 264.49 147.05C264.49 147.03 264.49 147.02 264.49 147C264.58 145.59 265.07 143.79 265.96 141.64C266.88 139.42 268.19 137.2 269.87 135.02C271.28 133.16 272.98 131.27 274.92 129.42C276.14 128.26 277.47 127.15 278.89 126.13C279.32 125.82 279.9 125.8 280.38 126.04C280.97 126.33 281.56 126.59 282.17 126.8C282.31 126.85 282.46 126.9 282.6 126.95C282.81 127.02 283.29 127.27 282.9 128.15L282.89 128.14Z" fill="white"></path>
    <path d="M388.66 132.891C388.76 132.891 388.85 132.891 388.94 132.871C390.51 132.531 392.05 132.131 393.58 131.641C395.21 131.121 396.81 130.521 398.38 129.841C399.85 129.201 401.3 128.491 402.67 127.651C403.74 126.991 404.82 126.251 405.64 125.281C406.18 124.651 406.66 123.821 406.46 122.951C406.42 122.791 406.36 122.631 406.28 122.491C406.2 122.341 405.86 122.281 405.72 122.261C405.44 122.221 405.16 122.231 404.88 122.261C404.09 122.351 403.31 122.591 402.56 122.851C401.57 123.201 400.6 123.621 399.65 124.061C398.58 124.571 397.52 125.111 396.48 125.691C395.43 126.271 394.4 126.881 393.39 127.531C392.48 128.111 391.58 128.721 390.72 129.381C390.05 129.891 389.39 130.421 388.81 131.031C388.49 131.361 388.06 131.801 387.99 132.271C387.92 132.691 388.29 132.881 388.66 132.891Z" fill="white"></path>
    <path d="M644.72 120.56C644.23 119.85 643.3 118.91 641.64 118.48C638.9 117.78 636.07 119.32 634.13 121.18C632.78 122.48 631.8 123.39 630.52 124.77C628.57 126.87 626.29 129.21 623.75 131.71C622.81 132.63 619.95 135.54 618.94 136.46C619.51 135.63 620.69 134.15 621.26 133.32C621.94 132.37 623.99 130 624.84 128.87C626.04 127.26 626.74 125.62 626.91 124V123.89C627.03 122.3 626.69 119.27 623.12 116.96C622.73 116.71 622.31 116.49 621.87 116.3C623.62 116.06 625.03 115.41 626.25 114.64C629.31 112.69 631.51 107.53 628.84 104.43C627.12 102.44 623.68 101.4 622.66 101.16C620.49 100.65 617.59 100.35 615.49 100.35C612.45 100.35 604.48 100.69 596.19 103.82C589.62 106.3 583.15 110.63 576.88 115.31C571.34 119.45 564.72 126.67 560.6 131.59C559.76 132.59 559.02 133.48 558.37 134.28C555.45 137.82 554.9 138.54 552.79 140.43C551.51 141.57 549.95 142.79 548.33 143.4C550.67 140.87 553.66 137.76 554.58 136.7C556.34 134.68 558.01 132.68 559.56 130.36C560.52 128.93 561.29 127.41 562 125.85C562.78 124.13 563.23 122.36 563.35 120.61C563.48 118.5 563.05 116.55 562.07 114.82C559.35 110.02 553.94 107.27 547.24 107.27C541.67 107.27 535.54 109.1 529.03 112.71C528.29 113.12 527.62 113.54 527.02 113.97C526.27 113.1 525.32 112.36 524.19 111.77C522.73 110.99 521.07 110.45 519.25 110.16C518.3 110.01 517.35 109.93 516.42 109.93C515.6 109.93 514.77 110.01 513.96 110.11C511.48 110.4 507.05 112.33 507.05 112.33C505.11 113.02 500.81 113.52 492.87 113.52C489.89 113.52 487.36 112.48 484.17 111.16C479.56 109.25 473.82 106.88 464.53 106.88C462.99 106.88 461.54 107.02 460.33 107.16C458.96 107.32 457.74 107.54 456.71 107.8C448.55 109.68 440.65 113.51 434.86 119.66C433.6 120.99 432.41 122.39 431.24 123.79C431.01 124.06 428.97 126.56 427.38 128.36C427.32 128.43 427.3 128.44 427.31 128.35C427.33 128.18 427.45 127.99 427.51 127.84C427.78 127.2 428.08 126.6 428.22 125.91C428.31 125.47 428.39 125.03 428.46 124.58C428.58 123.75 428.64 122.92 428.63 122.08C428.62 121.31 428.55 120.54 428.41 119.79C428.28 119.08 428.08 118.38 427.83 117.7C427.58 117.02 427.28 116.41 426.92 115.81C426.56 115.21 426.16 114.65 425.72 114.11C425.28 113.57 424.77 113.07 424.25 112.6C423.73 112.13 423.14 111.68 422.54 111.28C421.94 110.88 421.29 110.48 420.63 110.14C419.97 109.8 419.25 109.46 418.54 109.17C417.83 108.88 417.06 108.61 416.31 108.37C415.56 108.13 414.75 107.92 413.96 107.74C413.17 107.56 412.34 107.4 411.53 107.27C410.72 107.14 409.88 107.04 409.05 106.96C408.22 106.88 407.38 106.83 406.54 106.8C405.7 106.77 404.87 106.77 404.04 106.79C403.21 106.81 402.4 106.85 401.58 106.92C400.76 106.99 399.98 107.08 399.19 107.19C398.4 107.3 397.65 107.44 396.89 107.6C396.13 107.76 395.44 107.93 394.72 108.14C394.1 108.32 393.48 108.52 392.88 108.74C382.75 112.12 375.71 116.96 370.63 122.48C370.63 122.48 370.61 122.5 370.6 122.51C369.84 123.33 369.13 124.19 368.41 125.04C366.65 127.12 364.83 129.19 363.31 131.46C362.46 132.72 361.74 134.04 360.99 135.36C360.53 136.17 360.15 137.08 359.62 137.84C359.23 138.33 357.71 138.78 357.71 138.78C357.12 136.05 356.82 134.5 354.47 132.53C376 126.26 367.54 103.31 345.69 106.21C328.89 108.18 314.97 118.93 299.08 110.5C279.47 99.9601 250.99 113.22 240.78 135.08C240.23 136.26 238.19 137.74 236.54 138.62C236.31 138.74 234.47 139.82 235.2 138.52C239.44 131.65 250.01 121.03 239.52 116.4C249.14 116.1 251.59 105.15 242.59 101.7C234.18 98.5901 223.62 101.33 215.71 104.28C198.15 109.6 154.26 144.36 180.48 159.59C157.94 171.15 172.72 189.9 193.81 182.41C203.97 178.8 210.02 174.23 216.61 167.55C223.57 160.78 232.37 157.06 240.48 150.97C259.48 176.68 300.31 157.47 307.73 130.31C307.81 129.91 307.93 129.09 309.36 129.08C310.39 129.06 310.29 129.93 310.31 130.19C310.69 139.87 324.39 143.16 332.79 142.77C333.38 142.74 333.49 143.53 332.88 143.96C329.41 146.46 323.81 145.28 319.78 142.78C317.21 141.19 314.44 139.95 311.39 139.96C307.95 139.96 303.86 142.76 301.73 145.34C300.28 147.1 299.16 149.1 299.59 151.33C300.79 157.61 308.41 161.64 320.07 163.33C322.31 163.65 325.35 163.8 327.52 163.8C343.07 163.8 356.97 156.03 361.08 153.49C361.08 153.49 361.27 153.39 361.36 153.33C364.86 157.49 370.6 159.75 370.6 159.75C387.84 167.29 409.31 160.31 423.2 150.59C426.84 156.27 432.08 159.96 438 161.69C439.86 162.18 441.81 162.54 443.86 162.76C445.05 162.89 446.27 162.95 447.47 162.95C450.83 162.95 454.28 162.45 457.71 161.47C461.36 160.44 464.88 158.71 468.1 156.71C471.51 154.59 474.39 151.82 477.39 149.17C477.29 149.26 477.38 151.21 477.38 151.42C477.44 155.55 479.98 159.68 483.7 161.47C484.94 162.07 486.33 162.49 487.81 162.75C489.29 163 492.18 163.01 492.5 163.01C493.01 163.01 493.72 163.01 494.25 162.96C495.74 162.85 497.36 162.61 498.65 162.07C501.33 160.95 503.8 158.38 504.56 155.63C504.64 155.33 505.07 154.13 505.07 154.13C509.82 141.59 518.48 135.42 525.91 132.44C524.16 134.67 522.31 137.22 520.69 139.89C519.85 141.28 518.79 143.15 518.15 145.34C517.58 147.27 517.46 149.3 517.78 151.57C518.63 157.54 522.32 161.85 528.22 163.72C530.51 164.42 532.89 164.77 535.5 164.77C535.97 164.77 536.44 164.76 536.9 164.74C547.6 164.28 554.31 159.37 557.44 156.37C558.18 157.08 559.12 157.83 560.33 158.57C560.96 158.95 561.62 159.28 562.32 159.56C561.99 159.73 561.66 159.9 561.34 160.07C558.15 161.79 555.56 163.85 553.64 166.17C551.33 168.97 550.55 172.19 551.37 175.43C551.92 177.76 553.3 179.65 555.37 180.91C557.07 181.94 559.09 182.63 561.38 182.95C562.57 183.12 563.82 183.2 565.09 183.2C566.06 183.2 567.07 183.15 568.09 183.05C568.22 183.04 580.86 181.75 590.22 174.65C593.14 172.43 595.88 169.95 598.35 167.27C599.83 165.66 601.59 164.26 603.58 163.11C606.3 161.53 609.11 159.78 611.91 157.92C616.02 155.19 620.06 152.13 623.93 148.82C627.79 145.52 631.54 141.9 635.07 138.04C638.63 134.15 641.89 129.91 644.78 125.42C645.77 123.85 645.78 122.05 644.78 120.58L644.72 120.56ZM641.34 124.67C638.55 129.01 636.13 132.07 632.68 135.84C629.23 139.61 625.61 143.11 621.82 146.34C618.04 149.57 614.13 152.53 610.11 155.2C607.35 157.04 604.63 158.73 601.95 160.29C599.73 161.58 597.7 163.17 595.96 165.06C593.72 167.49 591.16 169.85 588.25 172.06C580.54 177.92 569.88 179.61 567.77 179.82C565.66 180.02 563.68 179.99 561.82 179.73C559.97 179.47 558.37 178.93 557.04 178.13C555.71 177.32 554.87 176.17 554.52 174.68C553.94 172.39 554.47 170.24 556.13 168.23C557.79 166.22 560.04 164.45 562.87 162.92C565.71 161.39 568.88 160.14 572.38 159.17C575.18 158.4 577.85 157.87 580.4 157.59C581.64 157.45 582.74 156.76 583.39 155.69C584.76 153.47 587.02 149.7 588.77 146.79C589.06 146.3 588.4 145.81 588.01 146.23C585.59 148.83 582.22 152.17 578.98 154.29C577.25 155.42 575.37 156.16 573.46 156.68C571.55 157.21 569.6 157.42 567.64 157.33C565.67 157.24 563.73 156.84 562.01 155.79C559.97 154.54 558.94 153.31 558.26 152.39C557.94 151.95 557.34 151.84 556.89 152.15C556.89 152.15 550.55 160.89 536.75 161.49C534.34 161.59 531.83 161.43 529.16 160.61C526.59 159.79 521.9 157.59 520.98 151.1C520.75 149.51 520.76 147.9 521.25 146.24C521.74 144.58 522.53 143.06 523.45 141.56C527.12 135.53 532.14 129.99 533.2 128.82C534.18 127.89 533.71 126.72 532.87 126.89C532.03 127.07 510.19 131.43 502.03 152.97C501.66 153.96 501.5 155.01 501.06 155.97C500.48 157.21 498.68 158.54 497.4 159.07C496.42 159.48 495.15 159.63 494 159.72C492.85 159.81 489.55 159.75 488.35 159.54C487.15 159.34 485.44 158.69 484.46 158.22C482.32 157.23 480.92 156.03 480.31 153.7C480.01 152.57 479.79 151.2 479.82 150.03C479.89 147.11 481.77 144.34 483.44 142.06C484.86 140.13 486.06 138.56 487.03 137.33C488.36 135.7 489.5 134.29 491.08 132.62C492.63 130.98 492.81 130.73 493.53 129.89C494.33 128.96 494.61 127.5 493.44 127.4C493.06 127.37 492.85 127.29 490.46 127.32C488.91 127.34 488.43 127.73 487.71 129.37C487.02 130.96 486.12 132.6 485.19 134.14C483.74 136.54 482.1 138.84 480.58 140.88C479.33 142.57 477.87 144.27 476.21 145.96C474.55 147.65 472.74 149.27 470.77 150.82C468.8 152.37 466.65 153.78 464.32 155.07C461.99 156.35 459.48 157.58 456.8 158.33C452.5 159.56 448.29 159.95 444.17 159.51C443.1 159.4 441.59 159.28 440.34 159.04C439.01 158.79 437.97 158.44 437.97 158.44C432.13 156.5 426.92 152.46 424.98 146.59C424.79 145.96 423.94 145.8 423.47 146.18C413.37 154.21 400.1 159.64 387.03 159.64C385.5 159.64 383.96 159.56 382.43 159.39C381.04 159.24 379.66 159.01 378.3 158.7C377.06 158.42 375.84 158.08 374.63 157.67C373.54 157.3 372.48 156.88 371.44 156.39C370.51 155.96 369.6 155.48 368.72 154.96C367.95 154.5 367.2 154.01 366.49 153.47C365.88 153.02 365.3 152.53 364.74 152.01C364.3 151.59 363.87 151.15 363.49 150.68C363.24 150.37 363.02 150.05 362.81 149.71C362.48 149.19 361.93 149.29 361.48 149.57C361.16 149.8 360.83 150.01 360.51 150.23C360.51 150.23 340.32 163.09 320.49 160.2C314.51 159.33 310.71 158.27 307.88 156.51C305 154.72 302.96 153.03 302.57 150.37C302.15 147.53 307.13 144.19 309.39 143.28C311.47 142.45 313.14 142.73 315.17 143.74C315.85 144.08 317.08 144.68 317.76 145.03C317.06 144.68 323.45 149.08 331.79 147.13C335.73 146.21 337.19 143.63 337.04 141.48C336.91 139.65 334.09 140.09 329.69 140.06C322.73 140.01 312.91 137.14 313.11 129.43C313.16 128.06 311.96 126.62 310.4 126.63C302.19 126.72 307.39 128.65 298.6 141.05C284.4 159.7 253.84 169.14 242.21 147.06C242.04 146.52 241.4 146.29 240.93 146.61C238.36 148.35 222.38 158.63 221.57 159.12C210.22 166.13 209 173.57 192.1 179.21C177.61 184.05 162.12 173.4 180.89 162.64C196.05 155.22 199.14 163.14 208.47 146.29C208.75 145.61 207.99 144.95 207.31 145.73C203.52 149.76 197.1 155.26 191.34 156.6C179.65 159.7 169.6 151.88 179.6 136.45C185.62 127.83 197.91 115.83 210.08 109.96C224.15 103.17 232.99 101.86 240.58 103.93C245.69 105.24 245.81 110.66 242.12 112.76C237.43 115.43 233.13 112.06 221.75 118.25C214.72 122.18 209.19 126.91 203.76 132.7C200.87 135.05 190.97 148.14 200.04 141.76C206.04 137.63 218.91 123.54 224.71 120.39C226.53 119.34 232.97 114.93 239.04 119.09C241.06 120.37 241.74 123.59 239.28 127.43C235.12 133.92 231.16 139.53 227.03 146C226.55 146.72 227.48 147.31 228.14 146.93C244 137.63 242.34 138.25 243.59 136.07C250.26 121.62 266.18 110.86 282.42 110.11C298.12 110.11 296.81 116.68 313.18 116.68C323.95 116.92 334.44 110.17 345.87 109.39C369.67 107.58 366.88 127.98 352 130.33C350.66 130.5 349.18 130.06 348.25 128.89C346.22 125.24 351.66 123.23 350.67 121.29C350.57 121.09 350.28 120.72 349.55 120.65C344.52 120.3 329.77 125.52 327.89 129.97C327.73 130.36 327.7 131.2 328.69 131.46C331.36 132.13 335.17 131.14 337.71 131.21C364.46 130.65 347.74 150.83 361.81 140.01C362.06 139.82 362.7 139.06 363.01 138.36C366.41 130.59 375.06 121.81 378.46 119.5C390.43 110.63 410.8 104.75 422.86 116.04C428.33 122.51 425.68 131.04 414.8 137.5C404.54 143.51 390.06 144.41 382.68 142.16C382.54 142.12 382.18 142.09 382.01 142.33C381.33 146.24 391.6 146.83 398.2 145.83C408.55 144.54 418.09 140.1 426.04 133.4C428.86 131.03 431.38 128.34 433.82 125.58C436.62 122.4 439.49 119.41 442.99 116.97C447.41 113.89 452.27 112.11 457.49 110.91C458.38 110.68 459.46 110.49 460.71 110.34C461.96 110.2 463.24 110.08 464.54 110.08C479.66 110.08 484.41 116.72 492.89 116.72C494.76 116.72 500.7 116.53 502.9 116.23C504.71 115.99 506.91 115.88 508.52 114.95C509.67 114.28 513.03 113.48 514.45 113.28C515.87 113.08 517.31 113.09 518.78 113.32C520.24 113.55 521.55 113.98 522.71 114.59C523.86 115.2 524.71 115.99 525.24 116.95C525.55 117.51 525.69 118.12 525.67 118.77C526.02 118.52 527.71 117.31 529.6 116.13C529.79 116.01 529.99 115.89 530.19 115.77C531.24 115.14 532.3 114.56 533.2 114.18C546.42 107.77 555.92 110.46 559.28 116.38C559.99 117.64 560.23 118.99 560.15 120.36C560.06 121.73 559.7 123.1 559.09 124.47C556.86 129.39 553.09 133.84 549.56 137.87C547.6 140.12 545.57 142.32 543.69 144.65C542.93 145.58 542.76 146.06 542.76 146.67C542.76 149.69 548.03 147.73 552.68 144.22C557.54 140.55 557.31 139.71 562.74 133.64C566.65 129.26 573.41 121.95 578.87 117.87C585.35 113.03 592.09 108.29 599.85 105.75C606.16 103.68 614.47 101.81 621.11 103.42C621.9 103.61 622.68 103.84 623.44 104.13C624.69 104.61 626.55 106.1 626.73 107.55C626.91 109 626.03 110.57 624.9 111.48C623.53 112.58 621.72 113.48 619.99 113.63C611.42 114.36 603.62 117.58 596.78 122.72C594.63 124.34 592.76 125.86 591.2 127.28C589.47 128.85 587.65 130.65 585.76 132.67C583.86 134.69 577.38 141.71 578.62 143.26C579.01 143.75 579.64 143.95 582.3 141.94C584.28 140.45 593.38 132.22 597.22 128.38C598.63 126.97 600.08 125.58 601.55 124.18C603.04 122.76 604.6 121.43 606.35 120.33C608.97 118.68 611.86 117.73 614.92 117.41C617.13 117.17 619.67 117.82 621.51 119.07C623.01 120.09 623.88 121.82 623.75 123.64C623.66 124.88 622.93 125.87 622.31 126.91C621.58 128.14 620.79 129.27 620.1 130.23C618.95 131.88 617.83 133.52 616.73 135.15C615.63 136.79 614.63 138.37 613.57 140L609.31 146.34C609.05 146.75 609.52 147.24 609.94 146.99C612.46 145.51 614.9 143.74 617.45 141.65C620.54 139.11 623.39 136.56 626.01 133.99C628.62 131.42 631.01 129.06 632.98 126.94C634.95 124.82 636.06 123.92 636.88 123.11C637.99 122.01 640 120.71 641.53 121.86C642.45 122.56 641.87 123.84 641.37 124.62L641.34 124.67ZM345.37 128.89C342.41 128.31 334.42 129.1 333.97 128.67C333.9 128.61 333.83 128.44 334.02 128.31C339.72 125.04 344.72 124 346.12 123.77C346.23 123.74 346.24 123.85 346.21 123.88C344.44 126.47 345.3 128.64 345.38 128.89H345.37Z" fill="white"></path>
    <path d="M118.08 84.86H156.73L156.71 32.44C156.71 22.52 154.13 14.76 149.05 9.37004C144 4.01004 136.95 1.29004 128.11 1.29004C122.19 1.29004 116.81 2.45004 112.11 4.71004C107.38 7.00004 102.57 10.69 97.82 15.66L96.48 17.07L95.47 15.4C89.72 5.91004 81.06 1.30004 69.01 1.30004C58.99 1.30004 50.46 5.00004 43.67 12.31L41.09 15.08V6.83004C20.84 9.24004 0.0100098 6.90004 0.0100098 6.90004L0.0400098 84.89H41.12L41.1 27.63L41.73 27.18C44.73 25.06 47.73 23.98 50.65 23.98C53.61 23.98 55.99 25.02 57.74 27.08C59.42 29.05 60.27 31.75 60.27 35.1L60.29 84.87H98.94L98.92 27.47L99.56 27.02C102.46 25 105.46 23.97 108.46 23.97C111.32 23.97 113.67 24.99 115.46 27C117.2 28.96 118.08 31.69 118.09 35.08L118.11 84.85L118.08 84.86Z" fill="white"></path>
    <path d="M199.62 71.2003C196.6 71.2003 194.04 70.2803 192.03 68.4603C189.97 66.6103 188.94 64.2703 188.93 61.5103C188.93 58.8303 189.92 56.6303 191.87 54.9603C195.2 52.1203 200.44 51.7603 206.94 53.9703L207.95 54.3103V68.0403L207.42 68.4803C205.3 70.2803 202.67 71.1903 199.62 71.1903M191.42 41.1203C183.08 41.1203 176.26 43.3403 171.14 47.7203C166.03 52.1003 163.54 57.6203 163.54 64.5903C163.54 70.6903 165.54 75.6003 169.65 79.5903C173.78 83.6003 178.8 85.5503 185.01 85.5503C192.44 85.5503 199.37 83.2403 205.59 78.7003L207.96 76.9703V84.8403L249.03 84.8303L249.01 38.8403C249.01 26.1403 245.57 16.6003 238.8 10.5103C231.99 4.3803 221.15 1.2703 206.58 1.2803C191.46 1.2803 177.72 4.5203 165.73 10.8903V33.3603C173.63 29.4503 181.46 27.4703 189.05 27.4703C194.81 27.4703 199.41 28.6903 202.72 31.1003C206.18 33.6203 207.94 37.1703 207.94 41.6403V43.6003L206.06 43.0903C201.31 41.8003 196.38 41.1503 191.41 41.1603" fill="white"></path>
    <path d="M318.14 84.7897H356.8L356.78 32.9397C356.78 22.4197 354.21 14.4097 349.16 9.12973C344.13 3.87973 336.74 1.21973 327.18 1.21973C317.33 1.21973 308.75 4.92973 301.66 12.2597L299.1 14.8997V6.74973C299.1 6.74973 277.49 9.29973 258.02 6.81973L258.05 84.8097H299.13L299.11 27.5497L299.75 27.0997C302.65 25.0797 305.6 24.0597 308.51 24.0497C312.9 24.0497 318.13 26.1597 318.13 36.2297L318.15 84.7897H318.14Z" fill="white"></path>
    <path d="M410.75 51.1904C407.46 51.1904 404.75 50.1704 402.71 48.1604C400.67 46.1504 399.63 43.4304 399.63 40.0804C399.63 34.4904 402.44 27.8304 415.86 27.8304H418.36V48.5604L417.81 49.0004C416.03 50.4604 413.65 51.1904 410.74 51.1904M365.7 101.77C378.75 109.56 395.34 113.5 415.04 113.5C430.26 113.5 441.62 110.18 448.78 103.65C455.9 97.1604 459.52 86.6704 459.51 72.4904L459.49 6.69043L411.51 6.71043C401.19 6.71043 393.79 7.11043 389.53 7.88043C385.36 8.63043 381.51 10.0304 378.09 12.0804C374.75 14.0804 371.76 17.3404 369.22 21.7704C366.68 26.2004 365.39 31.6004 365.39 37.8204C365.39 47.2304 368.42 54.8304 374.37 60.4004C380.35 66.0004 388.57 68.8304 398.77 68.8204C405.63 68.8204 411.45 67.3404 416.08 64.4204L417.96 63.2304L418.34 65.4204C418.5 66.3104 418.58 67.1604 418.58 67.9604C418.58 76.2404 412.08 80.4304 399.28 80.4404C387.09 80.4404 375.8 75.9404 365.69 67.0404V101.79L365.7 101.77Z" fill="white"></path>
    <path d="M468.54 84.7404H509.61V54.2104C509.61 43.7204 511.99 36.3804 516.69 32.3904L517.77 31.4804L518.74 32.5104C523.44 37.4704 528.91 39.8804 535.48 39.8804C541.19 39.8804 545.68 38.1204 549.2 34.5104C552.73 30.8904 554.44 26.2504 554.44 20.3304C554.44 14.7004 552.69 10.1904 549.09 6.55039C545.5 2.92039 541.04 1.15039 535.47 1.15039C525.38 1.15039 517.86 7.25039 512.46 19.7904L509.6 26.4404V6.68039C486.42 9.09039 468.52 6.69039 468.52 6.69039L468.55 84.7404H468.54Z" fill="white"></path>
    <path d="M598.42 53.5296C595.16 53.5296 592.47 52.4696 590.41 50.3696C588.35 48.2996 587.31 45.5696 587.3 42.2696C587.3 38.9796 588.34 36.2396 590.4 34.1296C592.46 32.0096 595.16 30.9296 598.42 30.9296C601.71 30.9296 604.44 31.9896 606.53 34.0796C608.62 36.1696 609.68 38.9196 609.68 42.2596C609.68 45.5496 608.62 48.2796 606.53 50.3796C604.45 52.4696 601.72 53.5296 598.42 53.5296ZM598.4 0.0595703C585.03 0.0595703 574 4.10957 565.64 12.0696C557.29 20.0096 553.07 30.4596 553.07 43.1396C553.07 55.8096 557.37 66.2196 565.83 74.0896C574.32 81.9796 585.29 85.9796 598.43 85.9796C611.9 85.9796 622.98 81.9596 631.37 74.0396C639.74 66.1496 643.98 55.7496 643.98 43.1096C643.98 30.4296 639.73 19.9896 631.35 12.0496C622.95 4.08957 611.87 0.0595703 598.4 0.0595703Z" fill="white"></path>
    <path d="M673.56 84.6696L704.18 84.6596L738.18 6.59961L697.38 6.60961L688.97 25.9696L680.4 6.61961L639.59 6.62961L673.56 84.6696Z" fill="white"></path>
    <path d="M798.67 35.21H774.87V33.72C774.87 28.91 776 25.16 778.23 22.59C780.51 19.95 783.26 18.62 786.41 18.62C789.96 18.62 792.88 20.01 795.1 22.77C797.21 25.41 798.4 29.07 798.61 33.65L798.68 35.21H798.67ZM777.71 0C764.87 0 754.3 3.97 746.29 11.78C738.29 19.58 734.24 29.82 734.24 42.22C734.24 55.26 738.66 65.91 747.38 73.87C756.13 81.86 767.9 85.91 782.38 85.91C799.72 85.91 813.22 79.85 822.52 67.92C822.52 67.92 818.75 65.44 814.55 61.6C810.29 63.34 805.49 64.23 800.2 64.23C795.03 64.23 790.37 62.91 786.34 60.28C782.28 57.65 779.34 53.94 777.62 49.28L776.88 47.27H822.5C822.39 39.69 821.41 33.16 819.59 27.85C817.67 22.23 814.63 17.23 810.58 13C806.52 8.76 801.64 5.5 796.07 3.31C790.47 1.12 784.29 0 777.71 0Z" fill="white"></path>
  </g>
  <defs>
    <clipPath id="clip0_152_3466">
      <rect width="822.51" height="184.12" fill="white"></rect>
    </clipPath>
  </defs>
</svg>
